<svg width="250" height="250" viewBox="0 0 250 250" fill="none" xmlns="http://www.w3.org/2000/svg">
<path d="M206.969 7.67767C216.732 -2.08541 232.561 -2.08543 242.324 7.67767C252.087 17.4408 252.087 33.2701 242.324 43.0331L160.356 125.001L242.326 206.971C252.089 216.734 252.089 232.563 242.326 242.326C232.563 252.089 216.734 252.089 206.971 242.326L125.001 160.356L43.0331 242.324C33.2701 252.087 17.4408 252.087 7.67767 242.324C-2.08543 232.561 -2.08541 216.732 7.67767 206.969L89.6454 125.001L7.67767 43.0331C-2.08543 33.27 -2.08543 17.4408 7.67767 7.67767C17.4408 -2.08544 33.27 -2.08544 43.0331 7.67767L125.001 89.6454L206.969 7.67767Z" fill="white"/>
</svg>
