<svg width="335" height="250" viewBox="0 0 335 250" fill="none" xmlns="http://www.w3.org/2000/svg">
<path d="M310 200C323.807 200 335 211.193 335 225C335 238.807 323.807 250 310 250H25C11.1929 250 0 238.807 0 225C0 211.193 11.1929 200 25 200H310ZM310 100C323.807 100 335 111.193 335 125C335 138.807 323.807 150 310 150H25C11.1929 150 0 138.807 0 125C0 111.193 11.1929 100 25 100H310ZM310 0C323.807 0 335 11.1929 335 25C335 38.8071 323.807 50 310 50H25C11.1929 50 0 38.8071 0 25C0 11.1929 11.1929 0 25 0H310Z" fill="white"/>
</svg>
