<svg width="640" height="440" viewBox="0 0 640 440" fill="none" xmlns="http://www.w3.org/2000/svg">
<path d="M196.634 191.081L171.365 253H162.664L137.396 191.081H146.229L163.367 234.675C164.07 236.462 164.7 238.278 165.257 240.124C165.843 241.97 166.443 243.801 167.059 245.617C167.645 243.801 168.26 241.896 168.904 239.904C169.549 237.912 170.164 236.169 170.75 234.675L187.801 191.081H196.634ZM204.148 230.896C204.148 236.345 205.276 240.549 207.532 243.508C209.788 246.467 213.084 247.946 217.42 247.946C220.848 247.946 223.587 247.258 225.638 245.881C227.718 244.504 229.124 242.761 229.856 240.651L236.8 242.629C233.958 250.129 227.498 253.879 217.42 253.879C210.389 253.879 205.027 251.784 201.336 247.595C197.674 243.405 195.843 237.18 195.843 228.918C195.843 221.066 197.674 215.046 201.336 210.856C205.027 206.667 210.286 204.572 217.112 204.572C224.114 204.572 229.358 206.682 232.845 210.9C236.331 215.119 238.074 221.433 238.074 229.841V230.896H204.148ZM229.9 224.831C229.461 219.821 228.187 216.174 226.077 213.889C223.968 211.574 220.936 210.417 216.98 210.417C213.143 210.417 210.096 211.706 207.84 214.284C205.613 216.833 204.412 220.349 204.236 224.831H229.9ZM256.268 228.215V253H248.357V216.525C248.357 214.855 248.328 213.098 248.27 211.252C248.24 209.406 248.182 207.473 248.094 205.451H255.564C255.623 206.799 255.667 208.015 255.696 209.099C255.755 210.183 255.799 211.135 255.828 211.955C255.857 212.746 255.872 213.42 255.872 213.977C255.901 214.504 255.916 214.899 255.916 215.163H256.092C256.971 212.292 257.938 210.065 258.992 208.483C260.018 207.019 261.189 206.008 262.508 205.451C263.826 204.865 265.452 204.572 267.386 204.572C268.47 204.572 269.539 204.719 270.594 205.012V212.263C269.598 211.97 268.191 211.823 266.375 211.823C263.094 211.823 260.589 213.244 258.86 216.086C257.132 218.898 256.268 222.941 256.268 228.215ZM311.243 225.446V253H303.377V215.603C303.377 212.819 303.348 210.593 303.289 208.923C303.26 207.224 303.201 206.066 303.113 205.451H310.584C310.643 206.096 310.701 206.887 310.76 207.824C310.818 208.762 310.862 209.743 310.892 210.769C310.921 211.765 310.936 212.702 310.936 213.581H311.067C312.767 210.212 314.715 207.868 316.912 206.55C319.109 205.231 321.79 204.572 324.954 204.572C328.558 204.572 331.399 205.29 333.479 206.726C335.589 208.161 337.054 210.446 337.874 213.581H338.006C339.646 210.388 341.624 208.088 343.938 206.682C346.282 205.275 349.109 204.572 352.42 204.572C357.225 204.572 360.711 205.876 362.879 208.483C365.076 211.091 366.175 215.368 366.175 221.315V253H358.353V222.854C358.353 218.254 357.723 215.075 356.463 213.317C355.203 211.56 352.933 210.681 349.651 210.681C346.194 210.681 343.499 211.97 341.565 214.548C339.661 217.097 338.709 220.729 338.709 225.446V253H330.887V222.854C330.887 218.254 330.257 215.075 328.997 213.317C327.737 211.56 325.467 210.681 322.186 210.681C318.816 210.681 316.15 211.97 314.188 214.548C312.225 217.126 311.243 220.759 311.243 225.446ZM390.301 253.879C385.525 253.879 381.937 252.619 379.534 250.1C377.132 247.58 375.931 244.123 375.931 239.729C375.931 234.807 377.542 231.027 380.765 228.391C384.017 225.754 389.246 224.348 396.453 224.172L407.132 223.996V221.403C407.132 217.536 406.312 214.768 404.671 213.098C403.03 211.428 400.452 210.593 396.937 210.593C393.392 210.593 390.813 211.193 389.202 212.395C387.591 213.596 386.624 215.515 386.302 218.151L378.04 217.404C379.388 208.85 385.745 204.572 397.112 204.572C403.089 204.572 407.586 205.949 410.604 208.703C413.621 211.428 415.13 215.383 415.13 220.568V241.047C415.13 243.391 415.438 245.163 416.053 246.364C416.668 247.536 417.84 248.122 419.568 248.122C420.389 248.122 421.253 248.02 422.161 247.814V252.736C421.165 252.971 420.154 253.146 419.129 253.264C418.104 253.381 417.078 253.439 416.053 253.439C413.123 253.439 410.984 252.678 409.637 251.154C408.318 249.602 407.571 247.185 407.396 243.903H407.132C405.11 247.536 402.752 250.114 400.057 251.638C397.391 253.132 394.139 253.879 390.301 253.879ZM407.132 229.533L398.475 229.709C394.783 229.738 391.971 230.119 390.037 230.852C388.104 231.555 386.624 232.639 385.599 234.104C384.573 235.568 384.061 237.487 384.061 239.86C384.061 242.438 384.749 244.431 386.126 245.837C387.532 247.243 389.524 247.946 392.103 247.946C395.032 247.946 397.61 247.287 399.837 245.969C402.093 244.65 403.865 242.849 405.154 240.563C406.473 238.249 407.132 235.876 407.132 233.444V229.533ZM436.136 187.785V195.344H428.226V187.785H436.136ZM436.136 205.451V253H428.226V205.451H436.136ZM483.992 239.86C483.992 244.343 482.293 247.8 478.895 250.231C475.525 252.663 470.794 253.879 464.7 253.879C458.782 253.879 454.212 252.912 450.989 250.979C447.796 249.016 445.716 245.969 444.749 241.838L451.736 240.476C452.41 243.024 453.802 244.899 455.911 246.101C458.021 247.272 460.95 247.858 464.7 247.858C468.714 247.858 471.644 247.243 473.489 246.013C475.364 244.782 476.302 242.937 476.302 240.476C476.302 238.601 475.657 237.077 474.368 235.905C473.079 234.733 470.999 233.767 468.128 233.005C464.729 232.097 462.02 231.35 459.998 230.764C458.006 230.178 456.468 229.68 455.384 229.27C454.3 228.83 453.436 228.42 452.791 228.039C450.857 226.926 449.349 225.563 448.265 223.952C447.181 222.341 446.639 220.363 446.639 218.02C446.639 213.684 448.177 210.388 451.253 208.132C454.358 205.847 458.87 204.704 464.788 204.704C470.032 204.704 474.192 205.627 477.269 207.473C480.374 209.318 482.337 212.277 483.157 216.35L476.038 217.229C475.599 215.119 474.412 213.508 472.479 212.395C470.574 211.252 468.011 210.681 464.788 210.681C461.214 210.681 458.577 211.223 456.878 212.307C455.179 213.391 454.329 215.031 454.329 217.229C454.329 218.84 454.812 220.173 455.779 221.228C456.746 222.253 458.592 223.103 461.316 223.776C464.979 224.655 468.465 225.622 471.775 226.677C475.086 227.702 477.459 228.728 478.895 229.753C480.564 230.954 481.824 232.375 482.674 234.016C483.553 235.627 483.992 237.575 483.992 239.86Z" fill="black"/>
</svg>
